<svg width="512" height="512" viewBox="0 0 512 512" fill="none" xmlns="http://www.w3.org/2000/svg">
<rect width="512" height="512" rx="54" fill="#6A63F6"/>
<path d="M256.423 107.656C337.632 107.656 391.771 128.107 391.771 154.135V182.023C402.466 182.023 411.106 190.331 411.106 200.615V237.798C411.106 248.082 402.466 256.39 391.771 256.39V349.349C391.771 359.633 383.13 367.941 372.435 367.941V386.533C372.435 396.816 363.795 405.124 353.1 405.124H333.764C323.07 405.124 314.429 396.816 314.429 386.533V367.941H198.416V386.533C198.416 396.816 189.776 405.124 179.081 405.124H159.745C149.05 405.124 140.41 396.816 140.41 386.533V367.941C129.715 367.941 121.074 359.633 121.074 349.349V256.39C110.38 256.39 101.739 248.082 101.739 237.798V200.615C101.739 190.331 110.38 182.023 121.074 182.023V154.135C121.074 128.107 175.214 107.656 256.423 107.656ZM159.745 200.615V256.39C159.745 266.674 168.386 274.982 179.081 274.982H246.755V182.023H179.081C168.386 182.023 159.745 190.331 159.745 200.615ZM266.09 274.982H333.764C344.459 274.982 353.1 266.674 353.1 256.39V200.615C353.1 190.331 344.459 182.023 333.764 182.023H266.09V274.982ZM169.413 340.053C174.541 340.053 179.459 338.094 183.085 334.608C186.711 331.121 188.749 326.392 188.749 321.461C188.749 316.53 186.711 311.802 183.085 308.315C179.459 304.828 174.541 302.87 169.413 302.87C164.285 302.87 159.367 304.828 155.741 308.315C152.115 311.802 150.078 316.53 150.078 321.461C150.078 326.392 152.115 331.121 155.741 334.608C159.367 338.094 164.285 340.053 169.413 340.053ZM343.432 340.053C348.56 340.053 353.478 338.094 357.104 334.608C360.73 331.121 362.768 326.392 362.768 321.461C362.768 316.53 360.73 311.802 357.104 308.315C353.478 304.828 348.56 302.87 343.432 302.87C338.304 302.87 333.386 304.828 329.76 308.315C326.134 311.802 324.097 316.53 324.097 321.461C324.097 326.392 326.134 331.121 329.76 334.608C333.386 338.094 338.304 340.053 343.432 340.053ZM314.429 154.135C314.429 149.023 310.079 144.839 304.761 144.839H208.084C202.767 144.839 198.416 149.023 198.416 154.135C198.416 159.248 202.767 163.431 208.084 163.431H304.761C310.079 163.431 314.429 159.248 314.429 154.135Z" fill="white"/>
</svg>
