<svg width="192" height="192" viewBox="0 0 192 192" fill="none" xmlns="http://www.w3.org/2000/svg">
<rect width="192" height="192" rx="20.25" fill="#6A63F6"/>
<path d="M96.1585 40.371C126.612 40.371 146.914 48.0401 146.914 57.8008V68.2586C150.925 68.2586 154.165 71.3742 154.165 75.2306V89.1744C154.165 93.0307 150.925 96.1463 146.914 96.1463V131.006C146.914 134.862 143.674 137.978 139.663 137.978V144.95C139.663 148.806 136.423 151.922 132.412 151.922H125.162C121.151 151.922 117.911 148.806 117.911 144.95V137.978H74.4061V144.95C74.4061 148.806 71.1659 151.922 67.1553 151.922H59.9045C55.8939 151.922 52.6537 148.806 52.6537 144.95V137.978C48.6431 137.978 45.4029 134.862 45.4029 131.006V96.1463C41.3923 96.1463 38.1521 93.0307 38.1521 89.1744V75.2306C38.1521 71.3742 41.3923 68.2586 45.4029 68.2586V57.8008C45.4029 48.0401 65.7051 40.371 96.1585 40.371ZM59.9045 75.2306V96.1463C59.9045 100.003 63.1447 103.118 67.1553 103.118H92.5331V68.2586H67.1553C63.1447 68.2586 59.9045 71.3742 59.9045 75.2306ZM99.7839 103.118H125.162C129.172 103.118 132.412 100.003 132.412 96.1463V75.2306C132.412 71.3742 129.172 68.2586 125.162 68.2586H99.7839V103.118ZM63.5299 127.52C65.4529 127.52 67.2972 126.785 68.657 125.478C70.0168 124.17 70.7807 122.397 70.7807 120.548C70.7807 118.699 70.0168 116.926 68.657 115.618C67.2972 114.311 65.4529 113.576 63.5299 113.576C61.6069 113.576 59.7626 114.311 58.4028 115.618C57.043 116.926 56.2791 118.699 56.2791 120.548C56.2791 122.397 57.043 124.17 58.4028 125.478C59.7626 126.785 61.6069 127.52 63.5299 127.52ZM128.787 127.52C130.71 127.52 132.554 126.785 133.914 125.478C135.274 124.17 136.038 122.397 136.038 120.548C136.038 118.699 135.274 116.926 133.914 115.618C132.554 114.311 130.71 113.576 128.787 113.576C126.864 113.576 125.02 114.311 123.66 115.618C122.3 116.926 121.536 118.699 121.536 120.548C121.536 122.397 122.3 124.17 123.66 125.478C125.02 126.785 126.864 127.52 128.787 127.52ZM117.911 57.8008C117.911 55.8835 116.279 54.3148 114.285 54.3148H78.0315C76.0375 54.3148 74.4061 55.8835 74.4061 57.8008C74.4061 59.718 76.0375 61.2867 78.0315 61.2867H114.285C116.279 61.2867 117.911 59.718 117.911 57.8008Z" fill="white"/>
<path d="M156.047 25.2305C161.969 25.2305 166.77 30.0312 166.77 35.9531V156.047C166.77 161.969 161.969 166.77 156.047 166.77H35.9531C30.0312 166.77 25.2305 161.969 25.2305 156.047V35.9531C25.2305 30.0312 30.0312 25.2305 35.9531 25.2305H156.047Z" stroke="white" stroke-width="4.28906"/>
</svg>
