<svg width="180" height="180" viewBox="0 0 180 180" fill="none" xmlns="http://www.w3.org/2000/svg">
<rect width="180" height="180" rx="18.9844" fill="#6A63F6"/>
<path d="M90.1485 37.8478C118.699 37.8478 137.732 45.0376 137.732 54.1882V63.9925C141.492 63.9925 144.529 66.9133 144.529 70.5286V83.601C144.529 87.2163 141.492 90.1372 137.732 90.1372V122.818C137.732 126.433 134.694 129.354 130.934 129.354V135.89C130.934 139.506 127.897 142.427 124.137 142.427H117.339C113.579 142.427 110.541 139.506 110.541 135.89V129.354H69.7557V135.89C69.7557 139.506 66.718 142.427 62.9581 142.427H56.1604C52.4005 142.427 49.3628 139.506 49.3628 135.89V129.354C45.6029 129.354 42.5652 126.433 42.5652 122.818V90.1372C38.8053 90.1372 35.7676 87.2163 35.7676 83.601V70.5286C35.7676 66.9133 38.8053 63.9925 42.5652 63.9925V54.1882C42.5652 45.0376 61.5985 37.8478 90.1485 37.8478ZM56.1604 70.5286V90.1372C56.1604 93.7525 59.1981 96.6733 62.9581 96.6733H86.7497V63.9925H62.9581C59.1981 63.9925 56.1604 66.9133 56.1604 70.5286ZM93.5473 96.6733H117.339C121.099 96.6733 124.137 93.7525 124.137 90.1372V70.5286C124.137 66.9133 121.099 63.9925 117.339 63.9925H93.5473V96.6733ZM59.5592 119.55C61.3621 119.55 63.0911 118.861 64.3659 117.636C65.6407 116.41 66.3569 114.747 66.3569 113.014C66.3569 111.28 65.6407 109.618 64.3659 108.392C63.0911 107.166 61.3621 106.478 59.5592 106.478C57.7564 106.478 56.0274 107.166 54.7526 108.392C53.4778 109.618 52.7616 111.28 52.7616 113.014C52.7616 114.747 53.4778 116.41 54.7526 117.636C56.0274 118.861 57.7564 119.55 59.5592 119.55ZM120.738 119.55C122.541 119.55 124.27 118.861 125.544 117.636C126.819 116.41 127.535 114.747 127.535 113.014C127.535 111.28 126.819 109.618 125.544 108.392C124.27 107.166 122.541 106.478 120.738 106.478C118.935 106.478 117.206 107.166 115.931 108.392C114.656 109.618 113.94 111.28 113.94 113.014C113.94 114.747 114.656 116.41 115.931 117.636C117.206 118.861 118.935 119.55 120.738 119.55ZM110.541 54.1882C110.541 52.3908 109.012 50.9201 107.143 50.9201H73.1545C71.2851 50.9201 69.7557 52.3908 69.7557 54.1882C69.7557 55.9857 71.2851 57.4563 73.1545 57.4563H107.143C109.012 57.4563 110.541 55.9857 110.541 54.1882Z" fill="white"/>
<path d="M146.294 23.6533C151.846 23.6533 156.347 28.1542 156.347 33.7061V146.294C156.347 151.846 151.846 156.347 146.294 156.347H33.7061C28.1542 156.347 23.6533 151.846 23.6533 146.294V33.7061C23.6533 28.1542 28.1542 23.6533 33.7061 23.6533H146.294Z" stroke="white" stroke-width="4.021"/>
</svg>
