<svg xmlns="http://www.w3.org/2000/svg" viewBox="0 0 512 512">
  <rect width="512" height="512" fill="#0C0B24"/>
  <rect width="512" height="512" rx="112" fill="#0C0B24"/>
  <g transform="translate(256,256) scale(0.72) translate(-256,-256)">
    <circle cx="180" cy="390" r="40" fill="#0C0B24"/>
    <circle cx="180" cy="390" r="18" fill="#6a63f6"/>
    <circle cx="332" cy="390" r="40" fill="#0C0B24"/>
    <circle cx="332" cy="390" r="18" fill="#6a63f6"/>
    <rect x="120" y="120" width="272" height="260" rx="24" fill="#6a63f6"/>
    <rect x="160" y="130" width="192" height="14" rx="5" fill="#0C0B24"/>
    <rect x="136" y="148" width="240" height="110" rx="10" fill="#0C0B24"/>
    <rect x="252" y="154" width="8" height="98" rx="3" fill="#6a63f6"/>
    <rect x="136" y="262" width="240" height="6" rx="3" fill="#413c96"/>
    <rect x="148" y="296" width="18" height="12" rx="5" fill="#413c96"/>
    <rect x="346" y="296" width="18" height="12" rx="5" fill="#413c96"/>
    <rect x="154" y="344" width="204" height="8" rx="4" fill="#413c96"/>
  </g>
</svg>
