<svg width="22" height="21" viewBox="0 0 22 21" fill="none" xmlns="http://www.w3.org/2000/svg">
<path d="M10.92 0C16.653 0 20.475 1.44375 20.475 3.28125V5.25C21.23 5.25 21.84 5.83652 21.84 6.5625V9.1875C21.84 9.91348 21.23 10.5 20.475 10.5V17.0625C20.475 17.7885 19.865 18.375 19.11 18.375V19.6875C19.11 20.4135 18.5 21 17.745 21H16.38C15.625 21 15.015 20.4135 15.015 19.6875V18.375H6.825V19.6875C6.825 20.4135 6.21502 21 5.46 21H4.095C3.33998 21 2.73 20.4135 2.73 19.6875V18.375C1.97498 18.375 1.365 17.7885 1.365 17.0625V10.5C0.609984 10.5 0 9.91348 0 9.1875V6.5625C0 5.83652 0.609984 5.25 1.365 5.25V3.28125C1.365 1.44375 5.187 0 10.92 0ZM4.095 6.5625V10.5C4.095 11.226 4.70498 11.8125 5.46 11.8125H10.2375V5.25H5.46C4.70498 5.25 4.095 5.83652 4.095 6.5625ZM11.6025 11.8125H16.38C17.135 11.8125 17.745 11.226 17.745 10.5V6.5625C17.745 5.83652 17.135 5.25 16.38 5.25H11.6025V11.8125ZM4.7775 16.4062C5.13952 16.4062 5.48671 16.268 5.7427 16.0218C5.99869 15.7757 6.1425 15.4418 6.1425 15.0938C6.1425 14.7457 5.99869 14.4118 5.7427 14.1657C5.48671 13.9195 5.13952 13.7812 4.7775 13.7812C4.41548 13.7812 4.06829 13.9195 3.8123 14.1657C3.55631 14.4118 3.4125 14.7457 3.4125 15.0938C3.4125 15.4418 3.55631 15.7757 3.8123 16.0218C4.06829 16.268 4.41548 16.4062 4.7775 16.4062ZM17.0625 16.4062C17.4245 16.4062 17.7717 16.268 18.0277 16.0218C18.2837 15.7757 18.4275 15.4418 18.4275 15.0938C18.4275 14.7457 18.2837 14.4118 18.0277 14.1657C17.7717 13.9195 17.4245 13.7812 17.0625 13.7812C16.7005 13.7812 16.3533 13.9195 16.0973 14.1657C15.8413 14.4118 15.6975 14.7457 15.6975 15.0938C15.6975 15.4418 15.8413 15.7757 16.0973 16.0218C16.3533 16.268 16.7005 16.4062 17.0625 16.4062ZM15.015 3.28125C15.015 2.92031 14.7079 2.625 14.3325 2.625H7.5075C7.13212 2.625 6.825 2.92031 6.825 3.28125C6.825 3.64219 7.13212 3.9375 7.5075 3.9375H14.3325C14.7079 3.9375 15.015 3.64219 15.015 3.28125Z" fill="#6A63F6"/>
</svg>
