<?xml version="1.0" encoding="UTF-8" standalone="no"?>
<!DOCTYPE svg PUBLIC "-//W3C//DTD SVG 1.1//EN" "http://www.w3.org/Graphics/SVG/1.1/DTD/svg11.dtd">
<svg width="100%" height="100%" viewBox="0 0 272 288" version="1.1" xmlns="http://www.w3.org/2000/svg" xmlns:xlink="http://www.w3.org/1999/xlink" xml:space="preserve" xmlns:serif="http://www.serif.com/" style="fill-rule:evenodd;clip-rule:evenodd;stroke-linejoin:round;stroke-miterlimit:2;">
    <g transform="matrix(1,0,0,1,-120,-120)">
        <circle cx="180" cy="390" r="18" style="fill:rgb(106,99,246);"/>
    </g>
    <g transform="matrix(1,0,0,1,-120,-120)">
        <circle cx="332" cy="390" r="18" style="fill:rgb(106,99,246);"/>
    </g>
    <g transform="matrix(1,0,0,1,-120,-120)">
        <path d="M392,144L392,356C392,369.246 381.246,380 368,380L144,380C130.754,380 120,369.246 120,356L120,144C120,130.754 130.754,120 144,120L368,120C381.246,120 392,130.754 392,144Z" style="fill:rgb(106,99,246);"/>
    </g>
    <g transform="matrix(1,0,0,1,-120,-120)">
        <path d="M352,135L352,139C352,141.76 349.76,144 347,144L165,144C162.24,144 160,141.76 160,139L160,135C160,132.24 162.24,130 165,130L347,130C349.76,130 352,132.24 352,135Z" style="fill:rgb(14,13,30);"/>
    </g>
    <g transform="matrix(1,0,0,1,-120,-120)">
        <path d="M376,158L376,248C376,253.519 371.519,258 366,258L146,258C140.481,258 136,253.519 136,248L136,158C136,152.481 140.481,148 146,148L366,148C371.519,148 376,152.481 376,158Z" style="fill:rgb(14,13,30);"/>
    </g>
    <g transform="matrix(1,0,0,1,-120,-120)">
        <path d="M260,157L260,249C260,250.656 258.656,252 257,252L255,252C253.344,252 252,250.656 252,249L252,157C252,155.344 253.344,154 255,154L257,154C258.656,154 260,155.344 260,157Z" style="fill:rgb(106,99,246);"/>
    </g>
    <g transform="matrix(1,0,0,1,-120,-120)">
        <path d="M376,265C376,266.656 374.656,268 373,268L139,268C137.344,268 136,266.656 136,265C136,263.344 137.344,262 139,262L373,262C374.656,262 376,263.344 376,265Z" style="fill:rgb(65,60,150);"/>
    </g>
    <g transform="matrix(1,0,0,1,-120,-120)">
        <path d="M166,301L166,303C166,305.76 163.76,308 161,308L153,308C150.24,308 148,305.76 148,303L148,301C148,298.24 150.24,296 153,296L161,296C163.76,296 166,298.24 166,301Z" style="fill:rgb(65,60,150);"/>
    </g>
    <g transform="matrix(1,0,0,1,-120,-120)">
        <path d="M364,301L364,303C364,305.76 361.76,308 359,308L351,308C348.24,308 346,305.76 346,303L346,301C346,298.24 348.24,296 351,296L359,296C361.76,296 364,298.24 364,301Z" style="fill:rgb(65,60,150);"/>
    </g>
    <g transform="matrix(1,0,0,1,-120,-120)">
        <path d="M358,348C358,350.208 356.208,352 354,352L158,352C155.792,352 154,350.208 154,348C154,345.792 155.792,344 158,344L354,344C356.208,344 358,345.792 358,348Z" style="fill:rgb(65,60,150);"/>
    </g>
</svg>
