<svg width="16" height="16" viewBox="0 0 16 16" fill="none" xmlns="http://www.w3.org/2000/svg">
<path d="M11 15.846L5 13.746L1.042 15.276C0.786 15.3713 0.548333 15.3437 0.329 15.193C0.109667 15.0423 0 14.8303 0 14.557V2.327C0 2.14833 0.0433334 1.98533 0.13 1.838C0.216667 1.69067 0.342667 1.58833 0.508 1.531L5 0L11 2.1L14.958 0.57C15.214 0.474666 15.4517 0.492667 15.671 0.624C15.8903 0.755333 16 0.951333 16 1.212V13.596C16 13.7873 15.947 13.9533 15.841 14.094C15.7357 14.2353 15.5937 14.3347 15.415 14.392L11 15.846ZM10.5 14.626V2.926L5.5 1.181V12.881L10.5 14.626Z" fill="white"/>
</svg>
