<svg width="12" height="13" viewBox="0 0 12 13" fill="none" xmlns="http://www.w3.org/2000/svg">
<path d="M12 9.91667V10.5H0V9.91667L1.33333 8.75V5.25C1.33333 3.44167 2.68667 1.84917 4.66667 1.33583V1.16667C4.66667 0.857247 4.80714 0.560501 5.05719 0.341709C5.30724 0.122916 5.64638 0 6 0C6.35362 0 6.69276 0.122916 6.94281 0.341709C7.19286 0.560501 7.33333 0.857247 7.33333 1.16667V1.33583C9.31333 1.84917 10.6667 3.44167 10.6667 5.25V8.75L12 9.91667ZM7.33333 11.0833C7.33333 11.3928 7.19286 11.6895 6.94281 11.9083C6.69276 12.1271 6.35362 12.25 6 12.25C5.64638 12.25 5.30724 12.1271 5.05719 11.9083C4.80714 11.6895 4.66667 11.3928 4.66667 11.0833" fill="white"/>
</svg>
