<svg width="31" height="31" viewBox="0 0 31 31" fill="none" xmlns="http://www.w3.org/2000/svg">
<path d="M9.07143 9.07143L21.9286 21.9286M9.07143 21.9286L21.9286 9.07143M15.5 30.5C13.5302 30.5 11.5796 30.112 9.75975 29.3582C7.93986 28.6044 6.28628 27.4995 4.8934 26.1066C3.50052 24.7137 2.39563 23.0601 1.64181 21.2403C0.887987 19.4204 0.5 17.4698 0.5 15.5C0.5 13.5302 0.887987 11.5796 1.64181 9.75975C2.39563 7.93986 3.50052 6.28628 4.8934 4.8934C6.28628 3.50052 7.93986 2.39563 9.75975 1.64181C11.5796 0.887986 13.5302 0.5 15.5 0.5C19.4782 0.5 23.2936 2.08035 26.1066 4.8934C28.9196 7.70644 30.5 11.5218 30.5 15.5C30.5 19.4782 28.9196 23.2936 26.1066 26.1066C23.2936 28.9196 19.4782 30.5 15.5 30.5Z" stroke="#A0A0A0"/>
</svg>
