<svg width="48" height="26" viewBox="0 0 48 26" fill="none" xmlns="http://www.w3.org/2000/svg">
<mask id="mask0_63_104" style="mask-type:luminance" maskUnits="userSpaceOnUse" x="0" y="0" width="48" height="26">
<path d="M24 1H35.5C41.848 1 47 6.22667 47 12.6667C47 19.1067 41.848 24.3333 35.5 24.3333H12.5C6.152 24.3333 1 19.1067 1 12.6667C1 6.22667 6.152 1 12.5 1H24Z" fill="white" stroke="white" stroke-width="2" stroke-linecap="round" stroke-linejoin="round"/>
<path d="M12.5 19.6666C16.3107 19.6666 19.4 16.5326 19.4 12.6666C19.4 8.80063 16.3107 5.66663 12.5 5.66663C8.68921 5.66663 5.59998 8.80063 5.59998 12.6666C5.59998 16.5326 8.68921 19.6666 12.5 19.6666Z" fill="black"/>
</mask>
<g mask="url(#mask0_63_104)">
<path d="M51.6 -15.3334H-3.59998V40.6666H51.6V-15.3334Z" fill="black"/>
</g>
<ellipse cx="12.458" cy="12.6666" rx="9.03273" ry="9" fill="white"/>
</svg>
