<svg width="30" height="30" viewBox="0 0 30 30" fill="none" xmlns="http://www.w3.org/2000/svg">
<path d="M12.6033 21.5133L23.2633 10.8533L22.0833 9.67333L12.6033 19.1533L7.85333 14.4033L6.67333 15.5833L12.6033 21.5133ZM15.005 30C12.9317 30 10.9817 29.6067 9.155 28.82C7.32944 28.0322 5.74111 26.9633 4.39 25.6133C3.03889 24.2633 1.96944 22.6767 1.18167 20.8533C0.393889 19.03 0 17.0806 0 15.005C0 12.9294 0.393889 10.9794 1.18167 9.155C1.96833 7.32944 3.03556 5.74111 4.38333 4.39C5.73111 3.03889 7.31833 1.96944 9.145 1.18167C10.9717 0.393889 12.9217 0 14.995 0C17.0683 0 19.0183 0.393889 20.845 1.18167C22.6706 1.96833 24.2589 3.03611 25.61 4.385C26.9611 5.73389 28.0306 7.32111 28.8183 9.14667C29.6061 10.9722 30 12.9217 30 14.995C30 17.0683 29.6067 19.0183 28.82 20.845C28.0333 22.6717 26.9644 24.26 25.6133 25.61C24.2622 26.96 22.6756 28.0294 20.8533 28.8183C19.0311 29.6072 17.0817 30.0011 15.005 30Z" fill="white"/>
</svg>
